<svg width="48" height="48" viewBox="0 0 48 48" fill="none" xmlns="http://www.w3.org/2000/svg">
<path fill-rule="evenodd" clip-rule="evenodd" d="M24 28C26.2091 28 28 26.2091 28 24C28 21.7909 26.2091 20 24 20C21.7909 20 20 21.7909 20 24C20 26.2091 21.7909 28 24 28ZM32 24C32 28.4183 28.4183 32 24 32C19.5817 32 16 28.4183 16 24C16 19.5817 19.5817 16 24 16C28.4183 16 32 19.5817 32 24Z" fill="#FCFCFC"/>
<path fill-rule="evenodd" clip-rule="evenodd" d="M34 12C32.4849 12 31.0999 11.144 30.4223 9.78885L30.0807 9.10557C29.7419 8.428 29.0493 8 28.2918 8H19.7082C18.9507 8 18.2581 8.428 17.9193 9.10557L17.5777 9.78885C16.9001 11.144 15.5151 12 14 12H10C8.89543 12 8 12.8954 8 14V34C8 35.1046 8.89543 36 10 36H38C39.1046 36 40 35.1046 40 34V14C40 12.8954 39.1046 12 38 12H34ZM34 8L33.6584 7.31672C32.642 5.28401 30.5644 4 28.2918 4H19.7082C17.4356 4 15.358 5.28401 14.3416 7.31672L14 8H10C6.68629 8 4 10.6863 4 14V34C4 37.3137 6.68629 40 10 40H38C41.3137 40 44 37.3137 44 34V14C44 10.6863 41.3137 8 38 8H34Z" fill="#FCFCFC"/>
<path d="M37 17C37 18.1046 36.1046 19 35 19C33.8954 19 33 18.1046 33 17C33 15.8954 33.8954 15 35 15C36.1046 15 37 15.8954 37 17Z" fill="#FCFCFC"/>
</svg>
