<svg width="20" height="20" viewBox="0 0 20 20" fill="none" xmlns="http://www.w3.org/2000/svg">
<path d="M5.58928 4.41073C5.26384 4.0853 4.7362 4.0853 4.41076 4.41073C4.08533 4.73617 4.08533 5.26381 4.41076 5.58925L8.82152 10L4.41079 14.4107C4.08535 14.7362 4.08535 15.2638 4.41079 15.5892C4.73623 15.9147 5.26386 15.9147 5.5893 15.5892L10 11.1785L14.4108 15.5893C14.7362 15.9147 15.2638 15.9147 15.5893 15.5893C15.9147 15.2638 15.9147 14.7362 15.5893 14.4107L11.1785 10L15.5893 5.58925C15.9147 5.26381 15.9147 4.73617 15.5893 4.41074C15.2639 4.0853 14.7362 4.0853 14.4108 4.41074L10 8.82149L5.58928 4.41073Z" fill="#33383F"/>
</svg>
