<svg width="20" height="20" viewBox="0 0 20 20" fill="none" xmlns="http://www.w3.org/2000/svg">
<path d="M10.8333 4.16666C10.8333 3.70642 10.4602 3.33333 9.99998 3.33333C9.53974 3.33333 9.16665 3.70642 9.16665 4.16666V9.16666H4.16665C3.70641 9.16666 3.33331 9.53976 3.33331 9.99999C3.33331 10.4602 3.70641 10.8333 4.16665 10.8333H9.16665V15.8333C9.16665 16.2936 9.53974 16.6667 9.99998 16.6667C10.4602 16.6667 10.8333 16.2936 10.8333 15.8333V10.8333H15.8333C16.2936 10.8333 16.6666 10.4602 16.6666 9.99999C16.6666 9.53976 16.2936 9.16666 15.8333 9.16666H10.8333V4.16666Z" fill="#33383F"/>
</svg>
