<svg width="48" height="48" viewBox="0 0 48 48" fill="none" xmlns="http://www.w3.org/2000/svg">
<path fill-rule="evenodd" clip-rule="evenodd" d="M20 20C21.1046 20 22 20.8954 22 22V32C22 33.1046 21.1046 34 20 34C18.8954 34 18 33.1046 18 32V22C18 20.8954 18.8954 20 20 20Z" fill="#FCFCFC"/>
<path fill-rule="evenodd" clip-rule="evenodd" d="M28 20C29.1046 20 30 20.8954 30 22V32C30 33.1046 29.1046 34 28 34C26.8954 34 26 33.1046 26 32V22C26 20.8954 26.8954 20 28 20Z" fill="#FCFCFC"/>
<path fill-rule="evenodd" clip-rule="evenodd" d="M20 4C16.6863 4 14 6.68629 14 10H8H6C4.89543 10 4 10.8954 4 12C4 13.1046 4.89543 14 6 14H8V38C8 41.3137 10.6863 44 14 44H34C37.3137 44 40 41.3137 40 38V14H42C43.1046 14 44 13.1046 44 12C44 10.8954 43.1046 10 42 10H40H34C34 6.68629 31.3137 4 28 4H20ZM30 10C30 8.89543 29.1046 8 28 8H20C18.8954 8 18 8.89543 18 10H30ZM14 14H12V38C12 39.1046 12.8954 40 14 40H34C35.1046 40 36 39.1046 36 38V14H34H14Z" fill="#FCFCFC"/>
</svg>
