<svg width="16" height="16" viewBox="0 0 16 16" fill="none" xmlns="http://www.w3.org/2000/svg">
<path fill-rule="evenodd" clip-rule="evenodd" d="M14.6666 8.00001C14.6666 11.6819 11.6819 14.6667 7.99998 14.6667C4.31808 14.6667 1.33331 11.6819 1.33331 8.00001C1.33331 4.31811 4.31808 1.33334 7.99998 1.33334C11.6819 1.33334 14.6666 4.31811 14.6666 8.00001ZM7.99998 7.33334C8.36817 7.33334 8.66665 7.63182 8.66665 8.00001V11.3339C8.66665 11.7021 8.36817 12.0006 7.99998 12.0006C7.63179 12.0006 7.33331 11.7021 7.33331 11.3339V8.00001C7.33331 7.63182 7.63179 7.33334 7.99998 7.33334ZM7.99998 6.00001C8.36817 6.00001 8.66665 5.70153 8.66665 5.33334C8.66665 4.96515 8.36817 4.66668 7.99998 4.66668C7.63179 4.66668 7.33331 4.96515 7.33331 5.33334C7.33331 5.70153 7.63179 6.00001 7.99998 6.00001Z" fill="#9A9FA5"/>
</svg>
