<svg width="24" height="25" viewBox="0 0 24 25" fill="none" xmlns="http://www.w3.org/2000/svg">
<path fill-rule="evenodd" clip-rule="evenodd" d="M12 14.5C13.1046 14.5 14 13.6046 14 12.5C14 11.3954 13.1046 10.5 12 10.5C10.8954 10.5 10 11.3954 10 12.5C10 13.6046 10.8954 14.5 12 14.5ZM16 12.5C16 14.7091 14.2091 16.5 12 16.5C9.79086 16.5 8 14.7091 8 12.5C8 10.2909 9.79086 8.5 12 8.5C14.2091 8.5 16 10.2909 16 12.5Z" fill="#6F767E"/>
<path fill-rule="evenodd" clip-rule="evenodd" d="M11.3791 3.5L10.9915 4.66266C10.6165 5.78756 9.79908 6.57025 8.96536 7.03447C8.90606 7.06749 8.84735 7.10145 8.78923 7.13634C7.96925 7.62859 6.88111 7.94611 5.71804 7.70811L4.51627 7.46218L4.91723 5.50278L6.11901 5.74871C6.68428 5.86439 7.26514 5.71857 7.75983 5.4216C7.83655 5.37554 7.91408 5.33069 7.9924 5.28709C8.49591 5.00673 8.91189 4.57694 9.09413 4.03021L9.48168 2.86754C9.75391 2.05086 10.5182 1.5 11.3791 1.5H12.621C13.4819 1.5 14.2462 2.05086 14.5184 2.86754L14.9059 4.03021C15.0882 4.57694 15.5042 5.00673 16.0077 5.28709C16.086 5.33069 16.1635 5.37554 16.2402 5.42159C16.7349 5.71857 17.3158 5.86438 17.881 5.7487L19.0828 5.50279C19.9262 5.3302 20.7854 5.71666 21.2158 6.46218L21.8368 7.53775C22.2672 8.28328 22.1723 9.22059 21.6011 9.86469L20.7862 10.7838C20.4042 11.2144 20.2392 11.7888 20.2483 12.3644C20.2497 12.4548 20.2497 12.5452 20.2483 12.6356C20.2392 13.2111 20.4042 13.7855 20.7862 14.2162L21.6011 15.1352C22.1723 15.7793 22.2672 16.7167 21.8368 17.4622L21.2158 18.5378C20.7854 19.2833 19.9262 19.6697 19.0828 19.4971L17.8811 19.2512C17.3158 19.1356 16.735 19.2814 16.2403 19.5784C16.1635 19.6244 16.086 19.6693 16.0077 19.7129C15.5042 19.9933 15.0882 20.4231 14.9059 20.9698L14.5184 22.1325C14.2462 22.9491 13.4819 23.5 12.621 23.5H11.3791C10.5182 23.5 9.75391 22.9491 9.48169 22.1325L9.09413 20.9698C8.91189 20.4231 8.49591 19.9933 7.9924 19.7129C7.91406 19.6693 7.83651 19.6244 7.75977 19.5784C7.26507 19.2814 6.68421 19.1356 6.11892 19.2512L4.91723 19.4971C4.07385 19.6697 3.21465 19.2833 2.78422 18.5378L2.16324 17.4622C1.73281 16.7167 1.82773 15.7793 2.39888 15.1352L3.89529 16.4622L4.51627 17.5378L5.71796 17.2918C6.88105 17.0538 7.9692 17.3714 8.78918 17.8636C8.84732 17.8985 8.90605 17.9325 8.96536 17.9655C9.79908 18.4298 10.6165 19.2124 10.9915 20.3373L11.3791 21.5L12.621 21.5L13.0086 20.3373C13.3835 19.2124 14.201 18.4298 15.0347 17.9655C15.094 17.9325 15.1527 17.8985 15.2109 17.8636C16.0309 17.3714 17.119 17.0538 18.2821 17.2919L19.4837 17.5378L20.1047 16.4622L19.2898 15.5431C18.505 14.6581 18.2334 13.5606 18.2486 12.6039C18.2497 12.5346 18.2497 12.4653 18.2486 12.3961C18.2334 11.4394 18.505 10.3418 19.2898 9.45681L20.1047 8.53775L19.4837 7.46218L18.282 7.7081C17.1189 7.9461 16.0308 7.62858 15.2108 7.13633C15.1527 7.10145 15.094 7.06749 15.0347 7.03447C14.201 6.57025 13.3835 5.78756 13.0086 4.66266L12.621 3.5L11.3791 3.5ZM2.39888 15.1352L3.89529 16.4622L4.71031 15.5431C5.49507 14.6581 5.76666 13.5605 5.75151 12.6039C5.75041 12.5346 5.75041 12.4653 5.75151 12.3961C5.76667 11.4394 5.49508 10.3419 4.71032 9.45687L3.89529 8.53775L4.51627 7.46218L4.91723 5.50278C4.07385 5.3302 3.21465 5.71665 2.78422 6.46218L2.16324 7.53775C1.73281 8.28328 1.82773 9.22059 2.39888 9.86469L3.21391 10.7838C3.59582 11.2145 3.76088 11.7889 3.75176 12.3644C3.75033 12.4548 3.75033 12.5452 3.75176 12.6355C3.76087 13.2111 3.59582 13.7854 3.21391 14.2161L2.39888 15.1352Z" fill="#6F767E"/>
</svg>
